PERFORMER "Tiga"
TITLE "Essential Mix (2009-04-04) [TMB]"
FILE "Essential Mix_Tiga_2009_04_04.mp3" MP3
  TRACK 01 AUDIO
    PERFORMER "Essential Mix"
    TITLE "Intro"
    INDEX 01 00:00:00
  TRACK 02 AUDIO
    PERFORMER "Air Liquide"
    TITLE "The Increased Difficulty Of Concentration"
    INDEX 01 02:15:69
  TRACK 03 AUDIO
    PERFORMER "Telefon Tel Aviv"
    TITLE "The Worst Thing In The World (Gaiser's Possibly The Universe Remix)"
    INDEX 01 05:57:55
  TRACK 04 AUDIO
    PERFORMER "Sei A"
    TITLE "Smile For Me"
    INDEX 01 08:49:62
  TRACK 05 AUDIO
    PERFORMER "Arnaud Rebotini"
    TITLE "Decade Of Aggression (Jesper Dahlbäck Remix)"
    INDEX 01 11:40:12
  TRACK 06 AUDIO
    PERFORMER "Tiga & Zyntherius"
    TITLE "Sunglasses At Night (Konrad Black Remix)"
    INDEX 01 15:13:73
  TRACK 07 AUDIO
    PERFORMER "Sei A"
    TITLE "My World"
    INDEX 01 17:15:38
  TRACK 08 AUDIO
    PERFORMER "The Mole"
    TITLE "Like The Way"
    INDEX 01 18:41:00
  TRACK 09 AUDIO
    PERFORMER "Sex Throthler a.k.a. Seth Troxler"
    TITLE "Face (Tribute To Head)"
    INDEX 01 20:21:50
  TRACK 10 AUDIO
    PERFORMER "Depeche Mode"
    TITLE "Wrong (Magda's Scallop Funk Mix)"
    INDEX 01 21:28:09
  TRACK 11 AUDIO
    PERFORMER "Plastikman"
    TITLE "Risk Assessment"
    INDEX 01 22:30:61
  TRACK 12 AUDIO
    PERFORMER "Yo Majesty"
    TITLE "Club Action (Stanton Warriors' Mo Bass Remix)"
    INDEX 01 22:57:31
  TRACK 13 AUDIO
    PERFORMER "Sidney Samson"
    TITLE "Riverside"
    INDEX 01 25:27:21
  TRACK 14 AUDIO
    PERFORMER "Tiga"
    TITLE "Shoes (Mr. Oizo Remix)"
    INDEX 01 27:28:21
  TRACK 15 AUDIO
    PERFORMER "Zoo Brazil & Adam Sky"
    TITLE "Circle Jerk (Bloody Beetroots Remix)"
    INDEX 01 30:59:12
  TRACK 16 AUDIO
    PERFORMER "Tiga"
    TITLE "What You Need (Proxy Remix)"
    INDEX 01 34:14:09
  TRACK 17 AUDIO
    PERFORMER "The Dove"
    TITLE "My Album Is Complete"
    INDEX 01 38:32:27
  TRACK 18 AUDIO
    PERFORMER "Housemeister"
    TITLE "Beef Jerky"
    INDEX 01 42:09:48
  TRACK 19 AUDIO
    PERFORMER "Moby"
    TITLE "I Love To Move In Here (Proxy Remix)"
    INDEX 01 44:19:15
  TRACK 20 AUDIO
    PERFORMER "Housemeister"
    TITLE "Who Is That Noize"
    INDEX 01 47:48:51
  TRACK 21 AUDIO
    PERFORMER "I-Cube"
    TITLE "Supernovac (Live At The Lanchonete Version)"
    INDEX 01 51:12:70
  TRACK 22 AUDIO
    PERFORMER "Donato Dozzy & Giorgio Gigli"
    TITLE "Real Love EQ - Italy"
    INDEX 01 54:27:21
  TRACK 23 AUDIO
    PERFORMER "Mike Mind"
    TITLE "Acid Machine"
    INDEX 01 57:55:10
  TRACK 24 AUDIO
    PERFORMER "Tiga"
    TITLE "Overtime"
    INDEX 01 60:56:69
  TRACK 25 AUDIO
    PERFORMER "Matias Aguayo"
    TITLE "Walter Neff"
    INDEX 01 66:00:45
  TRACK 26 AUDIO
    PERFORMER "The Jon Spencer Blues Explosion"
    TITLE "Mars Arizona (DFA Remix)"
    INDEX 01 70:07:37
  TRACK 27 AUDIO
    PERFORMER "Sei A"
    TITLE "This Is"
    INDEX 01 72:54:11
  TRACK 28 AUDIO
    PERFORMER "Peaches"
    TITLE "Lose You (Matt Walsh & Alex Jones Remix)"
    INDEX 01 76:25:36
  TRACK 29 AUDIO
    PERFORMER "Tiga"
    TITLE "Mind Dimension (Ben Hoo's Mind Die Menschen Remix)"
    INDEX 01 78:18:36
  TRACK 30 AUDIO
    PERFORMER "Zombie Nation"
    TITLE "Worth It Pt. 1"
    INDEX 01 80:20:02
  TRACK 31 AUDIO
    PERFORMER "Zoo Brazil & Adam Sky"
    TITLE "Circle Jerk (Milano 309 Remix)"
    INDEX 01 82:37:03
  TRACK 32 AUDIO
    PERFORMER "Mr. Oizo"
    TITLE "Steroids (Mr. Oizo Remix)"
    INDEX 01 84:30:53
  TRACK 33 AUDIO
    PERFORMER "Tiga"
    TITLE "What You Need (Zombie Nation Remix Pt. 2)"
    INDEX 01 86:59:61
  TRACK 34 AUDIO
    PERFORMER "Marco Carola"
    TITLE "Ninety"
    INDEX 01 89:43:12
  TRACK 35 AUDIO
    PERFORMER "Guy J"
    TITLE "Shaman (Cari Lekebusch Remix 1)"
    INDEX 01 92:31:57
  TRACK 36 AUDIO
    PERFORMER "Fever Ray"
    TITLE "Triangle Walks (Tiga's 1-2-3-4 Remix)"
    INDEX 01 93:03:02
  TRACK 37 AUDIO
    PERFORMER "Cage & Aviary"
    TITLE "Television Train"
    INDEX 01 97:17:41
  TRACK 38 AUDIO
    PERFORMER "MGMT"
    TITLE "Electric Feel (Prince Language Remix)"
    INDEX 01 99:35:71
  TRACK 39 AUDIO
    PERFORMER "LCD Soundsystem"
    TITLE "Too Much Love"
    INDEX 01 104:37:19
  TRACK 40 AUDIO
    PERFORMER "Tiga"
    TITLE "Love Don't Dance Here Anymore"
    INDEX 01 110:35:41